<svg width="9" height="6" viewBox="0 0 9 6" fill="none" xmlns="http://www.w3.org/2000/svg">
<path d="M4.5 4.64548L0.575113 0.603808C0.543484 0.570533 0.505932 0.544226 0.464632 0.526409C0.423331 0.508593 0.379102 0.499621 0.334503 0.500013C0.289905 0.500405 0.245822 0.510153 0.204807 0.528693C0.163792 0.547233 0.126659 0.574197 0.0955558 0.608024C0.0644529 0.641851 0.039998 0.68187 0.0236064 0.725765C0.00721482 0.76966 -0.000788065 0.81656 6.09177e-05 0.86375C0.0009099 0.910939 0.0105939 0.957482 0.0285525 1.00069C0.046511 1.04389 0.0723876 1.08289 0.104685 1.11544L4.26479 5.39889C4.32776 5.46372 4.41214 5.5 4.5 5.5C4.58786 5.5 4.67224 5.46372 4.73521 5.39889L8.89532 1.11544C8.92761 1.08289 8.95349 1.04389 8.97145 1.00068C8.98941 0.957482 8.99909 0.910939 8.99994 0.86375C9.00079 0.81656 8.99279 0.76966 8.97639 0.725765C8.96 0.68187 8.93555 0.641851 8.90444 0.608024C8.87334 0.574196 8.83621 0.547233 8.79519 0.528693C8.75418 0.510153 8.7101 0.500404 8.6655 0.500012C8.6209 0.499621 8.57667 0.508593 8.53537 0.526409C8.49407 0.544225 8.45652 0.570532 8.42489 0.603808L4.5 4.64548Z" fill="#071811"/>
</svg>
