<svg width="43" height="43" viewBox="0 0 43 43" fill="none" xmlns="http://www.w3.org/2000/svg">
<path d="M41.1564 29.4633L30.7921 24.8187C30.3225 24.6174 29.8102 24.5365 29.3014 24.5833C28.7927 24.63 28.3036 24.8029 27.8786 25.0863C27.8354 25.114 27.7944 25.1448 27.7557 25.1785L22.3388 29.7858C22.2826 29.8164 22.2201 29.8336 22.1561 29.8358C22.0921 29.8381 22.0285 29.8255 21.9703 29.7989C18.4885 28.1184 14.8816 24.5334 13.1944 21.0999C13.1664 21.0425 13.1517 20.9795 13.1517 20.9156C13.1517 20.8517 13.1664 20.7887 13.1944 20.7313L17.8171 15.2464C17.8503 15.2058 17.881 15.1633 17.9092 15.1192C18.1887 14.6925 18.3575 14.2029 18.4004 13.6946C18.4433 13.1863 18.359 12.6753 18.155 12.2078L13.5433 1.86108C13.2814 1.2503 12.8285 0.74094 12.2525 0.409439C11.6765 0.0779373 11.0086 -0.0578188 10.3489 0.0225451C7.48189 0.399459 4.85022 1.80741 2.94567 3.9833C1.04112 6.15918 -0.00598439 8.95411 2.57293e-05 11.8458C2.57293e-05 29.0245 13.9755 43 31.1541 43C34.0457 43.0055 36.8403 41.9582 39.0161 40.0538C41.1919 38.1493 42.6 35.5179 42.9773 32.6511C43.0575 31.9945 42.9236 31.3295 42.5955 30.7552C42.2674 30.1808 41.7627 29.7277 41.1564 29.4633ZM31.1541 40.3672C15.4279 40.3672 2.63277 27.5721 2.63277 11.8458C2.62543 9.59463 3.43796 7.41781 4.91853 5.72203C6.39909 4.02625 8.44642 2.92754 10.678 2.63116H10.7284C10.8169 2.63281 10.9027 2.66114 10.9747 2.71242C11.0468 2.76371 11.1016 2.83556 11.1321 2.91857L15.7614 13.2543C15.7878 13.3118 15.8014 13.3743 15.8014 13.4375C15.8014 13.5007 15.7878 13.5632 15.7614 13.6207L11.1299 19.1188C11.0954 19.158 11.0639 19.1998 11.0356 19.2438C10.7458 19.6862 10.5751 20.196 10.5402 20.7237C10.5052 21.2515 10.6071 21.7793 10.836 22.2561C12.782 26.2403 16.7969 30.2246 20.825 32.1706C21.3046 32.3982 21.835 32.4977 22.3645 32.4592C22.8939 32.4208 23.4044 32.2457 23.8461 31.9512C23.8878 31.9227 23.9295 31.892 23.9689 31.8591L29.3836 27.2518C29.4371 27.223 29.4961 27.2062 29.5567 27.2024C29.6173 27.1986 29.678 27.208 29.7346 27.2298L40.1011 31.8744C40.1857 31.9105 40.2569 31.9722 40.3046 32.051C40.3522 32.1297 40.3739 32.2215 40.3665 32.3132C40.0717 34.5458 38.974 36.5947 37.2786 38.0769C35.5832 39.5591 33.4061 40.3733 31.1541 40.3672Z" fill="#0E4C32"/>
</svg>
