<svg width="43" height="43" viewBox="0 0 43 43" fill="none" xmlns="http://www.w3.org/2000/svg">
<path d="M21.5 38.7C26.0617 38.7 30.4366 36.8879 33.6622 33.6622C36.8879 30.4366 38.7 26.0617 38.7 21.5C38.7 16.9383 36.8879 12.5634 33.6622 9.33776C30.4366 6.11214 26.0617 4.3 21.5 4.3C16.9383 4.3 12.5634 6.11214 9.33776 9.33776C6.11214 12.5634 4.3 16.9383 4.3 21.5C4.3 26.0617 6.11214 30.4366 9.33776 33.6622C12.5634 36.8879 16.9383 38.7 21.5 38.7ZM21.5 0C24.3234 0 27.1192 0.556114 29.7277 1.63659C32.3362 2.71707 34.7063 4.30074 36.7028 6.2972C38.6993 8.29366 40.2829 10.6638 41.3634 13.2723C42.4439 15.8808 43 18.6766 43 21.5C43 27.2022 40.7348 32.6708 36.7028 36.7028C32.6708 40.7348 27.2022 43 21.5 43C9.6105 43 0 33.325 0 21.5C0 15.7978 2.26517 10.3292 6.2972 6.2972C10.3292 2.26517 15.7978 0 21.5 0ZM22.575 10.75V22.0375L32.25 27.778L30.6375 30.4225L19.35 23.65V10.75H22.575Z" fill="#0E4C32"/>
</svg>
