<svg width="78" height="55" viewBox="0 0 78 55" fill="none" xmlns="http://www.w3.org/2000/svg">
<g clip-path="url(#clip0_22_430)">
<mask id="mask0_22_430" style="mask-type:luminance" maskUnits="userSpaceOnUse" x="38" y="16" width="40" height="39">
<path fill-rule="evenodd" clip-rule="evenodd" d="M43.4334 54.1958C62.0907 54.1958 77.2154 39.2373 77.2154 20.785C77.2154 19.2673 77.1132 17.7734 76.9149 16.3094C75.4347 16.1134 73.924 16.0122 72.3894 16.0122C53.7321 16.0122 38.6074 30.9707 38.6074 49.4229C38.6074 50.9406 38.7098 52.4346 38.9079 53.8986C40.3882 54.0945 41.8989 54.1958 43.4334 54.1958Z" fill="white"/>
</mask>
<g mask="url(#mask0_22_430)">
<path d="M76.9144 16.3093L78.4607 16.1045L78.3025 14.9365L77.1214 14.7801L76.9144 16.3093ZM38.9073 53.8985L37.3611 54.1032L37.5192 55.2713L38.7003 55.4278L38.9073 53.8985ZM75.6548 20.7849C75.6548 38.3851 61.2286 52.6528 43.4329 52.6528V55.7385C62.9518 55.7385 78.7748 40.0893 78.7748 20.7849H75.6548ZM75.3683 16.514C75.5572 17.9103 75.6548 19.3359 75.6548 20.7849H78.7748C78.7748 19.1986 78.668 17.6363 78.4607 16.1045L75.3683 16.514ZM72.3888 17.555C73.854 17.555 75.2956 17.6515 76.7074 17.8385L77.1214 14.7801C75.5726 14.575 73.9928 14.4692 72.3888 14.4692V17.555ZM40.1669 49.4228C40.1669 31.8227 54.5931 17.555 72.3888 17.555V14.4692C52.87 14.4692 37.0469 30.1186 37.0469 49.4228H40.1669ZM40.4536 53.6938C40.2645 52.2975 40.1669 50.8719 40.1669 49.4228H37.0469C37.0469 51.0092 37.1537 52.5715 37.3611 54.1032L40.4536 53.6938ZM43.4329 52.6528C41.9677 52.6528 40.5263 52.5562 39.1143 52.3692L38.7003 55.4278C40.2491 55.6328 41.8289 55.7385 43.4329 55.7385V52.6528Z" fill="#FAFAFA"/>
</g>
<mask id="mask1_22_430" style="mask-type:luminance" maskUnits="userSpaceOnUse" x="0" y="16" width="39" height="39">
<path fill-rule="evenodd" clip-rule="evenodd" d="M33.782 54.1958C15.1247 54.1958 0 39.2373 0 20.785C0 19.2673 0.102311 17.7734 0.300484 16.3094C1.78077 16.1134 3.29141 16.0122 4.82595 16.0122C23.4832 16.0122 38.608 30.9707 38.608 49.4229C38.608 50.9406 38.5057 52.4346 38.3075 53.8986C36.8273 54.0945 35.3166 54.1958 33.782 54.1958Z" fill="white"/>
</mask>
<g mask="url(#mask1_22_430)">
<path d="M0.299937 16.3093L-1.24627 16.1045L-1.08815 14.9365L0.0929306 14.7801L0.299937 16.3093ZM38.307 53.8985L39.8531 54.1032L39.6951 55.2713L38.514 55.4278L38.307 53.8985ZM1.55945 20.7849C1.55945 38.3851 15.9857 52.6528 33.7814 52.6528V55.7385C14.2626 55.7385 -1.56055 40.0893 -1.56055 20.7849H1.55945ZM1.84615 16.514C1.65712 17.9103 1.55945 19.3359 1.55945 20.7849H-1.56055C-1.56055 19.1986 -1.4536 17.6363 -1.24627 16.1045L1.84615 16.514ZM4.82541 17.555C3.36029 17.555 1.9188 17.6515 0.506943 17.8385L0.0929306 14.7801C1.64165 14.575 3.22145 14.4692 4.82541 14.4692V17.555ZM37.0475 49.4228C37.0475 31.8227 22.6212 17.555 4.82541 17.555V14.4692C24.3442 14.4692 40.1675 30.1186 40.1675 49.4228H37.0475ZM36.7607 53.6938C36.9498 52.2975 37.0475 50.8719 37.0475 49.4228H40.1675C40.1675 51.0092 40.0604 52.5716 39.8531 54.1032L36.7607 53.6938ZM33.7814 52.6528C35.2466 52.6528 36.688 52.5562 38.1 52.3694L38.514 55.4278C36.9652 55.6328 35.3854 55.7385 33.7814 55.7385V52.6528Z" fill="#FAFAFA"/>
</g>
<mask id="mask2_22_430" style="mask-type:luminance" maskUnits="userSpaceOnUse" x="24" y="0" width="28" height="55">
<path fill-rule="evenodd" clip-rule="evenodd" d="M34.7461 51.1249C21.5534 38.0773 21.5534 16.9227 34.7461 3.87496C35.8313 2.80176 36.9718 1.81683 38.1588 0.920166C39.3456 1.81682 40.4863 2.80175 41.5714 3.87493C54.7641 16.9227 54.7641 38.0771 41.5714 51.1249C40.4863 52.1981 39.3456 53.1831 38.1588 54.0797C36.9718 53.1831 35.8313 52.1981 34.7461 51.1249Z" fill="white"/>
</mask>
<g mask="url(#mask2_22_430)">
<path d="M38.1582 0.920223L37.2113 -0.305867L38.1582 -1.02124L39.1051 -0.305867L38.1582 0.920223ZM38.1582 54.0797L39.1051 55.3058L38.1582 56.0212L37.2111 55.3058L38.1582 54.0797ZM35.8486 4.96599C23.2652 17.4112 23.2652 37.5889 35.8486 50.034L33.6425 52.2159C19.8405 38.5657 19.8405 16.4343 33.6425 2.78406L35.8486 4.96599ZM39.1051 2.14631C37.973 3.00153 36.8846 3.94133 35.8486 4.96599L33.6425 2.78406C34.7767 1.6623 35.9694 0.632245 37.2113 -0.305867L39.1051 2.14631ZM40.4676 4.96596C39.4316 3.94131 38.3432 3.00151 37.2113 2.14631L39.1051 -0.305867C40.3469 0.632234 41.5397 1.66228 42.6739 2.78403L40.4676 4.96596ZM40.4676 50.034C53.0512 37.5889 53.0512 17.4111 40.4676 4.96596L42.6739 2.78403C56.4757 16.4343 56.4757 38.5657 42.6739 52.2159L40.4676 50.034ZM37.2111 52.8538C38.3432 51.9986 39.4316 51.0586 40.4676 50.034L42.6739 52.2159C41.5397 53.3378 40.3469 54.3678 39.1051 55.3058L37.2111 52.8538ZM35.8486 50.034C36.8846 51.0586 37.973 51.9986 39.1051 52.8538L37.2111 55.3058C35.9694 54.3678 34.7766 53.3378 33.6425 52.2159L35.8486 50.034Z" fill="#FAFAFA"/>
</g>
</g>
<defs>
<clipPath id="clip0_22_430">
<rect width="78" height="54" fill="white" transform="translate(0 0.5)"/>
</clipPath>
</defs>
</svg>
