<svg width="63" height="63" viewBox="0 0 63 63" fill="none" xmlns="http://www.w3.org/2000/svg">
<path d="M1.62109 9.1875C3.1966 8.15745 4.45417 6.70733 5.25093 5.00244C6.04771 6.70733 7.30528 8.15745 8.88079 9.18752C7.30528 10.2176 6.04771 11.6677 5.25093 13.3726C4.45416 11.6677 3.1966 10.2176 1.62109 9.1875Z" stroke="white"/>
<path d="M46.4102 51.8438C49.4233 50.1631 51.7976 47.5282 53.1562 44.3533C54.5148 47.5282 56.8891 50.1631 59.9022 51.8438C56.8891 53.5247 54.5148 56.1596 53.1562 59.3345C51.7976 56.1596 49.4233 53.5247 46.4102 51.8438Z" stroke="white"/>
<path fill-rule="evenodd" clip-rule="evenodd" d="M25.4259 2.67248L26.2501 0L27.0741 2.67249L28.0621 5.8767C31.4153 16.7509 39.309 25.6427 49.7094 30.2608L50.5595 30.6383L52.5 31.5L50.5595 32.3617L49.7094 32.7392C45.744 34.4999 42.1432 36.8819 39.0194 39.758L37.6915 38.8419C40.8842 35.8505 44.5671 33.3604 48.6262 31.5C38.0293 26.6432 29.9965 17.4948 26.557 6.34081L26.2501 5.34497L25.9429 6.34081C22.5034 17.4948 14.4706 26.6432 3.87381 31.5C14.4706 36.3568 22.5034 45.5052 25.9429 56.6592L26.2501 57.6551L26.557 56.6592C27.8814 52.3645 29.8867 48.3672 32.4571 44.7977L33.7537 45.6925C31.2732 49.1312 29.3386 52.9836 28.0621 57.1234L27.0741 60.3275L26.2501 63L25.4259 60.3275L24.4379 57.1234C21.0847 46.2491 13.1909 37.3573 2.79068 32.7392L1.94046 32.3617L0 31.5L1.94046 30.6383L2.79068 30.2608C13.1909 25.6427 21.0847 16.7509 24.4379 5.8767L25.4259 2.67248Z" fill="white"/>
<path d="M34.125 43.3124L36.7501 40.6875" stroke="white"/>
</svg>
