<svg width="21" height="19" viewBox="0 0 21 19" fill="none" xmlns="http://www.w3.org/2000/svg">
<path d="M10.8027 18.1656C10.6572 18.1667 10.5129 18.1388 10.3783 18.0834C10.2437 18.0281 10.1215 17.9465 10.0189 17.8434L2.54985 10.3743C1.87857 9.70187 1.37728 8.87926 1.08752 7.97465C0.797752 7.07004 0.72785 6.10946 0.883602 5.17248C1.03935 4.2355 1.41628 3.34908 1.98315 2.58665C2.55002 1.82422 3.29052 1.20773 4.14332 0.788233C5.21887 0.250605 6.43321 0.0544391 7.62351 0.226039C8.8138 0.39764 9.92313 0.928801 10.8027 1.7483C11.6828 0.929647 12.7921 0.399051 13.9822 0.227483C15.1722 0.055914 16.3864 0.251554 17.4621 0.788233C18.3149 1.20773 19.0555 1.82422 19.6223 2.58665C20.1892 3.34908 20.5661 4.2355 20.7219 5.17248C20.8776 6.10946 20.8077 7.07004 20.518 7.97465C20.2282 8.87926 19.7269 9.70187 19.0556 10.3743L11.5799 17.8434C11.478 17.9457 11.3569 18.0268 11.2235 18.0821C11.0902 18.1374 10.9471 18.1658 10.8027 18.1656ZM6.72109 1.29176C6.0036 1.28778 5.29558 1.45545 4.65619 1.78075C3.95337 2.1291 3.34395 2.64011 2.87864 3.27128C2.41333 3.90245 2.10559 4.63553 1.981 5.40952C1.86435 6.16309 1.92672 6.93351 2.16306 7.65854C2.39941 8.38357 2.80311 9.04289 3.34155 9.58323L10.8162 17.0523L18.2639 9.58323C18.8024 9.04289 19.2061 8.38357 19.4424 7.65854C19.6788 6.93351 19.7411 6.16309 19.6245 5.40952C19.4999 4.63553 19.1921 3.90245 18.7268 3.27128C18.2615 2.64011 17.6521 2.1291 16.9493 1.78075C16.0381 1.34086 15.0123 1.19628 14.0149 1.36719C13.0176 1.53811 12.0985 2.01598 11.3861 2.7341C11.2304 2.88677 11.0209 2.97229 10.8027 2.97229C10.5846 2.97229 10.3751 2.88677 10.2193 2.7341C9.28679 1.81481 8.03103 1.29705 6.72109 1.29176Z" fill="#071811"/>
</svg>
