<svg width="38" height="49" viewBox="0 0 38 49" fill="none" xmlns="http://www.w3.org/2000/svg">
<path d="M19 28C17.2919 28 15.6221 27.4868 14.2019 26.5254C12.7817 25.5639 11.6747 24.1973 11.021 22.5985C10.3674 20.9996 10.1964 19.2403 10.5296 17.543C10.8628 15.8456 11.6854 14.2865 12.8932 13.0628C14.101 11.8391 15.6398 11.0057 17.3151 10.6681C18.9904 10.3305 20.7269 10.5038 22.305 11.1661C23.8831 11.8283 25.2319 12.9498 26.1809 14.3888C27.1298 15.8277 27.6364 17.5194 27.6364 19.25C27.6336 21.5698 26.7228 23.7938 25.1038 25.4341C23.4848 27.0745 21.2897 27.9972 19 28ZM19 14C17.9751 14 16.9733 14.3079 16.1211 14.8848C15.269 15.4617 14.6048 16.2816 14.2126 17.2409C13.8204 18.2002 13.7178 19.2558 13.9178 20.2742C14.1177 21.2926 14.6112 22.2281 15.3359 22.9623C16.0606 23.6965 16.9839 24.1966 17.9891 24.3991C18.9943 24.6017 20.0361 24.4977 20.983 24.1004C21.9298 23.703 22.7391 23.0301 23.3085 22.1667C23.8779 21.3034 24.1818 20.2884 24.1818 19.25C24.1804 17.858 23.6341 16.5235 22.6626 15.5392C21.6911 14.555 20.3739 14.0014 19 14Z" fill="#0E4C32"/>
<path d="M19 49L4.42874 31.5893C4.22627 31.3278 4.0259 31.0647 3.82765 30.8C1.33862 27.4781 -0.00601296 23.4206 2.02141e-05 19.25C2.02141e-05 14.1446 2.0018 9.24827 5.56499 5.6382C9.12817 2.02812 13.9609 0 19 0C24.0391 0 28.8718 2.02812 32.435 5.6382C35.9982 9.24827 38 14.1446 38 19.25C38.006 23.4187 36.662 27.4744 34.1741 30.7948L34.1723 30.8C34.1723 30.8 33.6542 31.4895 33.5764 31.5823L19 49ZM6.58438 28.6912C6.58783 28.6912 6.98856 29.2302 7.0801 29.3457L19 43.589L30.9354 29.3265C31.0114 29.2302 31.4174 28.686 31.4174 28.686C33.4506 25.9719 34.5494 22.6573 34.5454 19.25C34.5454 15.0728 32.9076 11.0668 29.9923 8.11307C27.0769 5.15937 23.1229 3.5 19 3.5C14.8771 3.5 10.9231 5.15937 8.00772 8.11307C5.09238 11.0668 3.45456 15.0728 3.45456 19.25C3.45094 22.6594 4.54927 25.976 6.58438 28.6912Z" fill="#0E4C32"/>
</svg>
