<svg width="25" height="22" viewBox="0 0 25 22" fill="none" xmlns="http://www.w3.org/2000/svg">
<path d="M12.5 22C12.3181 22.0013 12.1377 21.9671 11.9695 21.8995C11.8012 21.8319 11.6485 21.7321 11.5202 21.6061L2.1839 12.4773C1.34479 11.6554 0.718181 10.65 0.355976 9.54433C-0.00622851 8.4387 -0.0936051 7.26466 0.101084 6.11946C0.295774 4.97426 0.766926 3.89086 1.47551 2.959C2.1841 2.02715 3.10973 1.27365 4.17573 0.760935C5.52017 0.103835 7.0381 -0.135924 8.52596 0.0738099C10.0138 0.283543 11.4005 0.932741 12.5 1.93435C13.6001 0.933775 14.9867 0.285269 16.4743 0.0755739C17.9619 -0.134121 19.4795 0.104994 20.8243 0.760935C21.8903 1.27365 22.8159 2.02715 23.5245 2.959C24.2331 3.89086 24.7042 4.97426 24.8989 6.11946C25.0936 7.26466 25.0062 8.4387 24.644 9.54433C24.2818 10.65 23.6552 11.6554 22.8161 12.4773L13.4714 21.6061C13.3441 21.7311 13.1927 21.8303 13.026 21.8979C12.8593 21.9655 12.6805 22.0002 12.5 22ZM7.39794 1.37636C6.50108 1.37149 5.61606 1.57642 4.81681 1.97401C3.93829 2.39977 3.17652 3.02434 2.59489 3.79577C2.01325 4.5672 1.62856 5.46318 1.47283 6.40918C1.32702 7.3302 1.40498 8.27182 1.70041 9.15797C1.99584 10.0441 2.50047 10.85 3.17352 11.5104L12.5168 20.6392L21.8265 11.5104C22.4995 10.85 23.0042 10.0441 23.2996 9.15797C23.595 8.27182 23.673 7.3302 23.5272 6.40918C23.3714 5.46318 22.9867 4.5672 22.4051 3.79577C21.8235 3.02434 21.0617 2.39977 20.1832 1.97401C19.0443 1.43637 17.7619 1.25965 16.5152 1.46855C15.2686 1.67745 14.1198 2.26152 13.2293 3.13921C13.0346 3.32581 12.7727 3.43034 12.5 3.43034C12.2273 3.43034 11.9654 3.32581 11.7707 3.13921C10.6051 2.01564 9.03536 1.38283 7.39794 1.37636Z" fill="#FAFAFA"/>
</svg>
