<svg width="19" height="19" viewBox="0 0 19 19" fill="none" xmlns="http://www.w3.org/2000/svg">
<path d="M18.6388 17.205L13.1913 11.7042C14.2066 10.4837 14.8186 8.9136 14.8186 7.19912C14.8186 3.31467 11.681 0.165649 7.81065 0.165649C3.94032 0.165649 0.802734 3.31467 0.802734 7.19912C0.802734 11.0836 3.94032 14.2326 7.81065 14.2326C9.56908 14.2326 11.1753 13.581 12.4059 12.5069L17.8457 18.0008C18.0646 18.2206 18.4198 18.2206 18.6387 18.0008C18.8574 17.7811 18.8574 17.4249 18.6387 17.205H18.6388ZM7.81065 13.1165C4.55449 13.1165 1.91475 10.4672 1.91475 7.19912C1.91475 3.93109 4.55449 1.28172 7.81065 1.28172C11.0668 1.28172 13.7066 3.93109 13.7066 7.19912C13.7066 10.4672 11.0668 13.1165 7.81065 13.1165Z" fill="#071811"/>
</svg>
