<svg width="45" height="28" viewBox="0 0 45 28" fill="none" xmlns="http://www.w3.org/2000/svg">
<path d="M43.1896 27.6633H38.2646C36.4012 27.6633 35.8398 26.139 32.4996 22.7633C29.5804 19.9219 28.3476 19.5686 27.6091 19.5686C26.5878 19.5686 26.3093 19.8521 26.3093 21.2717V25.7465C26.3093 26.9568 25.9207 27.6655 22.7899 27.6655C19.7526 27.4594 16.8072 26.5275 14.1964 24.9465C11.5856 23.3655 9.38396 21.1807 7.77296 18.572C3.94777 13.7636 1.28623 8.12011 0 2.0903C0 1.3445 0.28069 0.668486 1.68846 0.668486H6.61134C7.8766 0.668486 8.33218 1.23765 8.82879 2.55261C11.219 9.65732 15.2976 15.8374 16.9537 15.8374C17.5885 15.8374 17.8649 15.5539 17.8649 13.9555V6.63706C17.6554 3.29841 15.9 3.0171 15.9 1.80899C15.9222 1.49026 16.0666 1.19283 16.3024 0.979875C16.5383 0.766918 16.847 0.655213 17.1631 0.668486H24.9016C25.9595 0.668486 26.3093 1.20058 26.3093 2.47847V12.357C26.3093 13.4234 26.7627 13.7767 27.0823 13.7767C27.7171 13.7767 28.2051 13.4234 29.3688 12.2502C31.8634 9.17754 33.9015 5.75424 35.4188 2.08812C35.5741 1.64795 35.8677 1.27118 36.2548 1.01525C36.6419 0.759333 37.1013 0.638318 37.5628 0.670667H42.4879C43.9647 0.670667 44.2778 1.41647 43.9647 2.48065C42.1734 6.53329 39.957 10.3802 37.3534 13.9555C36.8222 14.7732 36.6107 15.1985 37.3534 16.158C37.8414 16.9038 39.5687 18.3605 40.7282 19.7452C42.4166 21.4462 43.8179 23.4132 44.8781 25.5677C45.3013 26.9546 44.5952 27.6633 43.1896 27.6633Z" fill="#071811"/>
</svg>
