<svg width="41" height="31" viewBox="0 0 41 31" fill="none" xmlns="http://www.w3.org/2000/svg">
<path d="M16.8 21.5941L27.699 15.1655L16.8 8.73696V21.5941ZM41.076 4.81553C41.349 5.82267 41.538 7.17267 41.664 8.88696C41.811 10.6012 41.874 12.0798 41.874 13.3655L42 15.1655C42 19.8584 41.664 23.3084 41.076 25.5155C40.551 27.4441 39.333 28.687 37.443 29.2227C36.456 29.5012 34.65 29.6941 31.878 29.8227C29.148 29.9727 26.649 30.037 24.339 30.037L21 30.1655C12.201 30.1655 6.72 29.8227 4.557 29.2227C2.667 28.687 1.449 27.4441 0.924 25.5155C0.651 24.5084 0.462 23.1584 0.336 21.4441C0.189 19.7298 0.126 18.2512 0.126 16.9655L0 15.1655C0 10.4727 0.336 7.02267 0.924 4.81553C1.449 2.88696 2.667 1.6441 4.557 1.10838C5.544 0.829813 7.35 0.636956 10.122 0.508384C12.852 0.358384 15.351 0.294099 17.661 0.294099L21 0.165527C29.799 0.165527 35.28 0.508385 37.443 1.10838C39.333 1.6441 40.551 2.88696 41.076 4.81553Z" fill="#071811"/>
</svg>
